HIERARCHY
ROOT Hips
{
	OFFSET 0.351881 -0.041802 1.321996
	CHANNELS 6 Xposition Yposition Zposition Zrotation Yrotation Xrotation 
	JOINT Spine
	{
		OFFSET -0.000004 8.340413 -2.713947
		CHANNELS 3 Zrotation Yrotation Xrotation
		JOINT Spine1
		{
			OFFSET 0.000011 11.910000 -2.100049
			CHANNELS 3 Zrotation Yrotation Xrotation
			JOINT Spine2
			{
				OFFSET 0.000002 12.047670 -1.054048
				CHANNELS 3 Zrotation Yrotation Xrotation
				JOINT Spine3
				{
					OFFSET 0.000053 12.093718 0.000036
					CHANNELS 3 Zrotation Yrotation Xrotation
					JOINT Neck
					{
						OFFSET -0.000061 15.549090 1.554886
						CHANNELS 3 Zrotation Yrotation Xrotation
						JOINT Neck1
						{
							OFFSET 0.000014 4.687313 0.410087
							CHANNELS 3 Zrotation Yrotation Xrotation
							JOINT Head
							{
								OFFSET 0.000047 4.633801 0.817063
								CHANNELS 3 Zrotation Yrotation Xrotation
								JOINT HeadEnd
								{
									OFFSET -0.000020 9.727776 0.000015
									CHANNELS 3 Zrotation Yrotation Xrotation
									End Site
									{
										OFFSET 0.000000 0.000000 0.000000
									}
								}
							}
						}
					}
					JOINT RightShoulder
					{
						OFFSET 0.000040 11.106515 6.072600
						CHANNELS 3 Zrotation Yrotation Xrotation
						JOINT RightArm
						{
							OFFSET -19.427917 0.000091 0.000008
							CHANNELS 3 Zrotation Yrotation Xrotation
							JOINT RightForeArm
							{
								OFFSET -29.350728 0.000024 0.000014
								CHANNELS 3 Zrotation Yrotation Xrotation
								JOINT RightHand
								{
									OFFSET -27.018044 0.000027 0.000090
									CHANNELS 3 Zrotation Yrotation Xrotation
									JOINT RightHandMiddle1
									{
										OFFSET -9.244027 0.000000 -0.000004
										CHANNELS 3 Zrotation Yrotation Xrotation
										JOINT RightHandMiddle2
										{
											OFFSET -4.870071 -0.000008 -0.000012
											CHANNELS 3 Zrotation Yrotation Xrotation
											JOINT RightHandMiddle3
											{
												OFFSET -3.169087 0.000007 0.000003
												CHANNELS 3 Zrotation Yrotation Xrotation
												JOINT RightHandMiddle4
												{
													OFFSET -1.888362 -0.000015 -0.000005
													CHANNELS 3 Zrotation Yrotation Xrotation
													End Site
													{
														OFFSET 0.000000 0.000000 0.000000
													}
												}
											}
										}
									}
									JOINT RightHandRing
									{
										OFFSET -0.250004 -0.250010 -0.956476
										CHANNELS 3 Zrotation Yrotation Xrotation
										JOINT RightHandRing1
										{
											OFFSET -8.140215 0.000039 -0.734589
											CHANNELS 3 Zrotation Yrotation Xrotation
											JOINT RightHandRing2
											{
												OFFSET -4.501563 -0.000021 -0.406251
												CHANNELS 3 Zrotation Yrotation Xrotation
												JOINT RightHandRing3
												{
													OFFSET -3.068831 0.000000 -0.276938
													CHANNELS 3 Zrotation Yrotation Xrotation
													JOINT RightHandRing4
													{
														OFFSET -1.869940 0.000011 -0.168761
														CHANNELS 3 Zrotation Yrotation Xrotation
														End Site
														{
															OFFSET 0.000000 0.000000 0.000000
														}
													}
												}
											}
										}
										JOINT RightHandPinky
										{
											OFFSET -0.163066 -0.249981 -0.975118
											CHANNELS 3 Zrotation Yrotation Xrotation
											JOINT RightHandPinky1
											{
												OFFSET -6.681458 -0.000020 -1.494091
												CHANNELS 3 Zrotation Yrotation Xrotation
												JOINT RightHandPinky2
												{
													OFFSET -3.580963 -0.000004 -0.800775
													CHANNELS 3 Zrotation Yrotation Xrotation
													JOINT RightHandPinky3
													{
														OFFSET -2.276525 -0.000024 -0.509064
														CHANNELS 3 Zrotation Yrotation Xrotation
														JOINT RightHandPinky4
														{
															OFFSET -1.690357 -0.000012 -0.377987
															CHANNELS 3 Zrotation Yrotation Xrotation
															End Site
															{
																OFFSET 0.000000 0.000000 0.000000
															}
														}
													}
												}
											}
										}
									}
									JOINT RightHandIndex
									{
										OFFSET -0.249989 -0.249997 0.956492
										CHANNELS 3 Zrotation Yrotation Xrotation
										JOINT RightHandIndex1
										{
											OFFSET -8.934076 0.000027 0.806260
											CHANNELS 3 Zrotation Yrotation Xrotation
											JOINT RightHandIndex2
											{
												OFFSET -4.694665 -0.000000 0.423664
												CHANNELS 3 Zrotation Yrotation Xrotation
												JOINT RightHandIndex3
												{
													OFFSET -2.811732 0.000021 0.253710
													CHANNELS 3 Zrotation Yrotation Xrotation
													JOINT RightHandIndex4
													{
														OFFSET -1.709895 -0.000031 0.154266
														CHANNELS 3 Zrotation Yrotation Xrotation
														End Site
														{
															OFFSET 0.000000 0.000000 0.000000
														}
													}
												}
											}
										}
										JOINT RightHandThumb1
										{
											OFFSET -0.163002 -0.749993 0.975101
											CHANNELS 3 Zrotation Yrotation Xrotation
											JOINT RightHandThumb2
											{
												OFFSET -5.411692 0.835524 2.244698
												CHANNELS 3 Zrotation Yrotation Xrotation
												JOINT RightHandThumb3
												{
													OFFSET -3.567163 0.550729 1.479619
													CHANNELS 3 Zrotation Yrotation Xrotation
													JOINT RightHandThumb4
													{
														OFFSET -2.150549 0.332034 0.892029
														CHANNELS 3 Zrotation Yrotation Xrotation
														End Site
														{
															OFFSET 0.000000 0.000000 0.000000
														}
													}
												}
											}
										}
									}
								}
							}
						}
					}
					JOINT LeftShoulder
					{
						OFFSET 0.000024 11.106468 6.072662
						CHANNELS 3 Zrotation Yrotation Xrotation
						JOINT LeftArm
						{
							OFFSET 19.427892 -0.000014 -0.000017
							CHANNELS 3 Zrotation Yrotation Xrotation
							JOINT LeftForeArm
							{
								OFFSET 29.350769 0.000022 0.000023
								CHANNELS 3 Zrotation Yrotation Xrotation
								JOINT LeftHand
								{
									OFFSET 27.018061 -0.000034 0.000006
									CHANNELS 3 Zrotation Yrotation Xrotation
									JOINT LeftHandMiddle1
									{
										OFFSET 9.402663 0.000017 -0.000006
										CHANNELS 3 Zrotation Yrotation Xrotation
										JOINT LeftHandMiddle2
										{
											OFFSET 4.950122 0.000014 -0.000003
											CHANNELS 3 Zrotation Yrotation Xrotation
											JOINT LeftHandMiddle3
											{
												OFFSET 3.211947 0.000002 -0.000016
												CHANNELS 3 Zrotation Yrotation Xrotation
												JOINT LeftHandMiddle4
												{
													OFFSET 1.927633 0.000010 0.000015
													CHANNELS 3 Zrotation Yrotation Xrotation
													End Site
													{
														OFFSET 0.000000 0.000000 0.000000
													}
												}
											}
										}
									}
									JOINT LeftHandRing
									{
										OFFSET 0.249962 -0.250007 -0.906133
										CHANNELS 3 Zrotation Yrotation Xrotation
										JOINT LeftHandRing1
										{
											OFFSET 8.286073 -0.000005 -0.747800
											CHANNELS 3 Zrotation Yrotation Xrotation
											JOINT LeftHandRing2
											{
												OFFSET 4.585526 0.000006 -0.413800
												CHANNELS 3 Zrotation Yrotation Xrotation
												JOINT LeftHandRing3
												{
													OFFSET 3.124442 0.000014 -0.281974
													CHANNELS 3 Zrotation Yrotation Xrotation
													JOINT LeftHandRing4
													{
														OFFSET 1.908792 -0.000003 -0.172248
														CHANNELS 3 Zrotation Yrotation Xrotation
														End Site
														{
															OFFSET 0.000000 0.000000 0.000000
														}
													}
												}
											}
										}
										JOINT LeftHandPinky
										{
											OFFSET 0.167543 -0.249995 -0.924965
											CHANNELS 3 Zrotation Yrotation Xrotation
											JOINT LeftHandPinky1
											{
												OFFSET 6.823473 0.000027 -1.525921
												CHANNELS 3 Zrotation Yrotation Xrotation
												JOINT LeftHandPinky2
												{
													OFFSET 3.642810 -0.000006 -0.814574
													CHANNELS 3 Zrotation Yrotation Xrotation
													JOINT LeftHandPinky3
													{
														OFFSET 2.333137 0.000009 -0.521706
														CHANNELS 3 Zrotation Yrotation Xrotation
														JOINT LeftHandPinky4
														{
															OFFSET 1.725454 0.000005 -0.385878
															CHANNELS 3 Zrotation Yrotation Xrotation
															End Site
															{
																OFFSET 0.000000 0.000000 0.000000
															}
														}
													}
												}
											}
										}
									}
									JOINT LeftHandIndex
									{
										OFFSET 0.250015 -0.250004 0.906141
										CHANNELS 3 Zrotation Yrotation Xrotation
										JOINT LeftHandIndex1
										{
											OFFSET 9.087981 -0.000013 0.820144
											CHANNELS 3 Zrotation Yrotation Xrotation
											JOINT LeftHandIndex2
											{
												OFFSET 4.776560 -0.000010 0.431057
												CHANNELS 3 Zrotation Yrotation Xrotation
												JOINT LeftHandIndex3
												{
													OFFSET 2.865143 0.000018 0.258586
													CHANNELS 3 Zrotation Yrotation Xrotation
													JOINT LeftHandIndex4
													{
														OFFSET 1.745450 0.000005 0.157494
														CHANNELS 3 Zrotation Yrotation Xrotation
														End Site
														{
															OFFSET 0.000000 0.000000 0.000000
														}
													}
												}
											}
										}
										JOINT LeftHandThumb1
										{
											OFFSET 0.167567 -0.749996 0.924955
											CHANNELS 3 Zrotation Yrotation Xrotation
											JOINT LeftHandThumb2
											{
												OFFSET 5.551484 0.857111 2.302686
												CHANNELS 3 Zrotation Yrotation Xrotation
												JOINT LeftHandThumb3
												{
													OFFSET 3.625648 0.559713 1.503911
													CHANNELS 3 Zrotation Yrotation Xrotation
													JOINT LeftHandThumb4
													{
														OFFSET 2.195247 0.338917 0.910541
														CHANNELS 3 Zrotation Yrotation Xrotation
														End Site
														{
															OFFSET 0.000000 0.000000 0.000000
														}
													}
												}
											}
										}
									}
								}
							}
						}
					}
				}
			}
		}
	}
	JOINT RightUpLeg
	{
		OFFSET -8.786538 0.000062 -0.000055
		CHANNELS 3 Zrotation Yrotation Xrotation
		JOINT RightLeg
		{
			OFFSET -0.000054 -42.170432 -0.000082
			CHANNELS 3 Zrotation Yrotation Xrotation
			JOINT RightFoot
			{
				OFFSET 0.000081 -45.949179 0.000043
				CHANNELS 3 Zrotation Yrotation Xrotation
				JOINT RightForeFoot
				{
					OFFSET 0.000015 -4.685846 0.000001
					CHANNELS 3 Zrotation Yrotation Xrotation
					JOINT RightToeBase
					{
						OFFSET -0.000061 0.000013 18.351111
						CHANNELS 3 Zrotation Yrotation Xrotation
						JOINT RightToeBaseEnd
						{
							OFFSET 0.000031 0.000031 6.416913
							CHANNELS 3 Zrotation Yrotation Xrotation
							End Site
							{
								OFFSET 0.000000 0.000000 0.000000
							}
						}
					}
				}
			}
		}
	}
	JOINT LeftUpLeg
	{
		OFFSET 8.786562 -0.000058 -0.000036
		CHANNELS 3 Zrotation Yrotation Xrotation
		JOINT LeftLeg
		{
			OFFSET -0.000006 -42.170415 0.000009
			CHANNELS 3 Zrotation Yrotation Xrotation
			JOINT LeftFoot
			{
				OFFSET -0.000026 -45.949182 0.000011
				CHANNELS 3 Zrotation Yrotation Xrotation
				JOINT LeftForeFoot
				{
					OFFSET 0.000088 -4.685824 0.000028
					CHANNELS 3 Zrotation Yrotation Xrotation
					JOINT LeftToeBase
					{
						OFFSET 0.000034 -0.000059 18.351037
						CHANNELS 3 Zrotation Yrotation Xrotation
						JOINT LeftToeBaseEnd
						{
							OFFSET -0.000044 -0.000003 7.522049
							CHANNELS 3 Zrotation Yrotation Xrotation
							End Site
							{
								OFFSET 0.000000 0.000000 0.000000
							}
						}
					}
				}
			}
		}
	}
}
MOTION
Frames: 4
Frame Time: 0.066667
-0.006388 -0.452482 6.452877 -6.719656 16.937721 1.862709 8.445099 -1.122555 -1.310654 -0.140017 -0.114475 -3.013081 -0.039020 0.823365 -1.370299 1.957135 0.848332 8.242362 5.096721 0.993395 8.216932 -9.445024 5.666723 0.224746 -5.748518 1.371729 1.753462 -0.000293 -0.001335 -0.001372 6.371590 -13.136098 -1.443446 64.524590 18.697283 -10.435260 179.999969 62.350826 159.293015 -25.357647 -7.875100 0.010151 24.118711 -9.083436 -0.006391 9.968152 -0.001544 0.001666 6.580568 -0.002764 0.002012 -0.002354 0.000288 0.001019 -0.909719 -2.366032 -7.065387 28.707888 -7.117185 -2.472104 31.011209 0.767594 -2.668098 5.427739 0.034053 -0.490662 0.001348 0.003506 -0.000182 -1.979448 -4.171327 -4.163214 23.627758 -2.404613 -5.078573 34.280582 2.239774 -7.230628 22.021009 0.954906 -4.813662 0.001455 -0.002954 0.001323 0.380578 7.297121 -0.853878 15.912642 -10.994619 1.450863 2.270334 -0.024885 0.207934 5.171688 -0.045740 0.467405 0.002293 -0.000388 0.000053 12.482701 -2.673212 49.782444 -6.009238 10.325843 -0.650573 -13.393910 7.663691 -5.091672 -0.001336 -0.002423 0.001983 -10.846004 9.108944 -1.736985 -62.582466 -0.511789 7.633517 -179.999573 -58.403339 163.566864 6.525674 25.303175 0.077809 -3.423862 9.641509 -0.002035 -55.177555 0.001923 -0.000830 -23.520882 0.002649 0.000276 0.000607 0.000906 -0.000541 -0.261021 2.691943 -11.327171 -6.330132 6.346335 -0.563595 -64.393166 -2.960205 -4.664441 -14.047884 -0.152705 -1.254874 0.001045 0.001827 0.001013 -0.249284 3.299069 -3.381347 -2.774287 5.785120 -0.618841 -49.851696 -4.590542 -9.845036 -29.238665 -1.632646 -6.266842 0.000200 -0.001564 -0.002209 -1.280098 -7.463866 -3.590079 -3.529267 16.974352 0.356654 -45.635098 1.578149 3.692834 -21.095089 0.341743 1.863155 -0.001459 -0.000207 -0.001457 -17.800703 4.692233 47.577492 -1.638628 0.960329 0.533607 0.000000 0.000000 0.000000 0.001303 0.000561 -0.002730 4.450998 -3.528866 2.236956 0.000863 -0.001365 3.462177 0.000000 0.000000 -0.000000 -0.000000 -0.000000 0.000000 0.000000 -0.000000 0.000000 0.000000 0.000000 0.000000 13.204766 -7.294612 1.247670 -0.001012 0.001331 1.211477 -0.000000 -0.000000 -0.000000 0.000000 0.000000 -0.000000 -0.000000 0.000000 0.000000 0.000000 0.000000 0.000000 
-0.106310 -0.443303 6.457591 -6.722867 16.994209 1.973075 8.461020 -1.124752 -1.344606 -0.141839 -0.116760 -3.020927 -0.039895 0.817099 -1.382216 1.946416 0.844132 8.232350 5.013968 1.081025 8.263417 -9.477577 5.714689 0.199371 -5.769656 1.379030 1.751085 -0.000277 -0.001298 -0.001324 6.383311 -13.186586 -1.454173 64.529205 18.516296 -9.960075 179.999939 62.117085 159.824707 -25.576302 -7.867130 0.013075 23.050297 -9.248259 -0.004505 7.615192 -0.001385 0.001752 5.488307 -0.003386 0.001811 -0.001821 0.000827 0.000779 -0.956295 -2.494798 -7.316245 27.650024 -7.477674 -2.389143 29.281248 0.667712 -2.531909 4.525692 0.019420 -0.408850 0.001638 0.003094 -0.000115 -2.054267 -4.321127 -3.982625 24.562855 -2.912622 -5.257858 33.383541 2.085890 -7.062458 20.854980 0.832479 -4.570835 0.002077 -0.003027 0.001444 0.398360 7.379353 -0.802411 15.026481 -10.745218 1.364460 0.167100 0.032739 0.018159 3.856025 -0.021584 0.349466 0.002614 -0.000463 0.000379 12.597840 -2.260387 49.779526 -5.733952 11.552011 -0.245684 -14.329374 8.172209 -5.447863 -0.001033 -0.002398 0.001933 -10.765338 9.168415 -1.735889 -62.569878 -0.631590 7.460336 -179.999222 -58.102352 163.569977 7.049830 25.392094 0.088253 -1.118835 10.078495 0.001574 -56.543751 0.001528 -0.000587 -23.854940 0.002275 -0.000234 0.000957 0.001220 -0.000770 -0.215791 2.817724 -11.447895 -4.807978 6.548938 -0.428771 -65.822830 -3.074374 -4.718469 -14.256546 -0.157531 -1.273308 0.001359 0.001874 0.001168 -0.226962 3.528440 -3.157847 -2.364378 5.798252 -0.528067 -50.728878 -4.734530 -9.971376 -29.216785 -1.627830 -6.261471 0.000711 -0.001798 -0.002291 -1.391530 -7.634449 -3.622804 -0.921975 17.286234 0.131085 -47.264141 1.686284 3.794294 -21.582026 0.358891 1.904516 -0.001278 -0.000377 -0.001436 -18.223396 4.625675 47.444023 -1.931781 0.477517 0.715819 0.000000 0.000000 0.000000 0.001057 0.000332 -0.003071 4.510227 -3.471452 2.164085 0.001056 -0.001501 3.440418 0.000000 0.000000 -0.000000 -0.000000 -0.000000 0.000000 0.000000 -0.000000 0.000000 0.000000 0.000000 0.000000 13.217201 -7.354367 1.161519 -0.001061 0.001541 1.142802 -0.000000 -0.000000 -0.000000 0.000000 -0.000000 -0.000000 -0.000000 0.000000 0.000000 0.000000 0.000000 0.000000 
-0.155030 -0.432315 6.467601 -6.712134 17.011877 2.000221 8.473150 -1.122149 -1.263093 -0.144879 -0.118867 -3.016009 -0.040103 0.815037 -1.390121 1.933761 0.840798 8.241016 4.926017 1.167972 8.252145 -9.486793 5.756665 0.166169 -5.788745 1.385850 1.757360 -0.000275 -0.001179 -0.001095 6.392894 -13.205670 -1.458838 64.683052 18.281450 -9.926392 179.999756 62.220043 160.061859 -26.312212 -7.383650 0.010072 22.796879 -9.185600 -0.003112 7.349814 -0.001284 0.001861 5.543568 -0.003927 0.001643 -0.000914 0.001367 0.000565 -1.020189 -2.592737 -7.485871 27.136518 -7.650399 -2.349169 29.206011 0.667986 -2.525011 4.392474 0.016639 -0.395840 0.002021 0.002742 -0.000147 -2.127220 -4.470485 -3.742628 25.468399 -3.140302 -5.435037 33.315140 2.052052 -7.050237 20.592823 0.805801 -4.516673 0.002562 -0.002944 0.001500 0.514748 7.506158 -0.841311 15.685220 -10.865254 1.427667 0.803555 -0.011677 0.075487 3.731285 -0.020148 0.338712 0.002811 -0.000363 0.000806 12.731753 -2.618680 50.454105 -4.791968 12.375928 0.342714 -14.414623 8.214082 -5.481606 -0.000708 -0.002213 0.001443 -10.725303 9.189390 -1.734226 -62.622021 -0.644563 7.319244 -179.998749 -58.061008 163.506790 8.114903 25.454405 0.111900 -0.211176 10.189844 0.002984 -58.101089 0.000906 -0.000466 -24.501305 0.001640 -0.000879 0.001280 0.001511 -0.000907 -0.176608 2.913463 -11.494146 -4.049078 6.561130 -0.362684 -67.492294 -3.207638 -4.778141 -14.601111 -0.165664 -1.303619 0.001657 0.001887 0.001304 -0.192434 3.712180 -2.995333 -1.995747 5.774820 -0.446315 -51.788204 -4.912158 -10.120560 -29.545994 -1.662959 -6.325577 0.001171 -0.002302 -0.002153 -1.511953 -7.785631 -3.680787 -0.209198 17.609999 0.079462 -49.456146 1.830630 3.926492 -22.330118 0.386420 1.967565 -0.001070 -0.000546 -0.001400 -18.613054 5.108751 47.693806 -2.460238 0.365091 0.932811 0.000000 0.000000 0.000000 0.000623 0.000139 -0.003307 4.543535 -3.424500 2.112719 0.001124 -0.001271 3.449963 0.000000 0.000000 -0.000000 -0.000000 -0.000000 0.000000 0.000000 -0.000000 0.000000 0.000000 0.000000 0.000000 13.247175 -7.341337 1.087065 -0.001127 0.001634 1.170891 -0.000000 -0.000000 -0.000000 0.000000 -0.000000 -0.000000 -0.000000 0.000000 0.000000 0.000000 0.000000 0.000000 
-0.130568 -0.422544 6.405394 -6.703632 16.997314 1.962529 8.506206 -1.117478 -1.068248 -0.149137 -0.120168 -2.998059 -0.046479 0.816079 -1.389563 1.901485 0.840079 8.270069 4.853783 1.229789 8.150270 -9.472502 5.823944 0.124680 -5.801500 1.392851 1.767522 -0.000196 -0.000805 -0.000777 6.383833 -13.212676 -1.453836 64.846581 17.970819 -10.145431 179.999435 62.619637 160.123230 -27.446032 -6.987081 0.001867 23.420273 -8.901810 -0.002710 8.932226 -0.001289 0.001971 6.578361 -0.004434 0.001416 -0.000001 0.001927 0.000473 -1.080632 -2.634252 -7.578552 27.205448 -7.612112 -2.355514 30.452721 0.745609 -2.621885 4.956926 0.024174 -0.445530 0.002363 0.002538 -0.000212 -2.176402 -4.563581 -3.544945 26.172499 -3.133097 -5.574529 33.879555 2.116711 -7.157216 21.124939 0.860443 -4.628915 0.002829 -0.002749 0.001282 0.677722 7.648089 -0.991297 17.717506 -11.272994 1.619862 3.803590 -0.135763 0.345688 4.646707 -0.037101 0.421289 0.002918 -0.000096 0.001245 12.811654 -3.639015 51.717888 -3.269128 12.605087 1.040747 -13.646918 7.789647 -5.192815 -0.000589 -0.001853 0.000607 -10.717846 9.187015 -1.732502 -62.620735 -0.583070 7.076341 -179.998459 -58.160007 163.226822 8.828094 25.510071 0.128558 -0.963267 9.958576 0.001319 -59.528324 0.000338 -0.000336 -25.349367 0.000940 -0.001704 0.001281 0.001752 -0.000904 -0.157152 2.970297 -11.462184 -4.409569 6.359485 -0.396800 -68.886421 -3.317641 -4.824981 -14.999966 -0.175065 -1.338650 0.001852 0.001862 0.001348 -0.154915 3.835053 -2.900119 -1.953718 5.625326 -0.436378 -52.698887 -5.061992 -10.245440 -30.028198 -1.715215 -6.420156 0.001442 -0.002837 -0.002017 -1.617188 -7.900566 -3.780537 -1.503460 17.982220 0.208002 -51.957714 1.989483 4.070585 -23.313484 0.423548 2.049622 -0.000990 -0.000767 -0.001261 -18.879177 6.028425 48.378601 -3.227650 0.656002 1.180117 0.000000 0.000000 0.000000 0.000249 0.000010 -0.003313 4.569095 -3.409236 2.115283 0.000916 -0.000714 3.475796 0.000000 0.000000 -0.000000 -0.000000 -0.000000 0.000000 0.000000 -0.000000 0.000000 0.000000 0.000000 0.000000 13.346723 -7.243149 0.999365 -0.001124 0.001546 1.286044 -0.000000 -0.000000 -0.000000 0.000000 -0.000000 -0.000000 -0.000000 0.000000 0.000000 0.000000 0.000000 0.000000 
